<svg width="108" height="108" viewBox="0 0 108 108" fill="none" xmlns="http://www.w3.org/2000/svg">
<g filter="url(#filter0_d)">
<path d="M100.889 53L104 46.9739L99.5369 41.8547L101.102 35.2649L95.5277 31.3636L95.4504 24.5935L89.0978 22.1306L87.3966 15.5741L80.6363 14.6836L77.4095 8.71875L70.631 9.46099L66.0543 4.44181L59.6553 6.78319L54 3L48.3447 6.78319L41.9454 4.44181L37.3686 9.46099L30.5903 8.71897L27.3634 14.6838L20.603 15.5744L18.902 22.131L12.5494 24.594L12.4721 31.364L6.89843 35.2651L8.46312 41.855L4 46.9739L7.11116 53L4.00022 59.0261L8.46312 64.1453L6.89843 70.7351L12.4723 74.6364L12.5496 81.4065L18.9022 83.8694L20.6034 90.4259L27.3637 91.3164L30.5905 97.2812L37.369 96.539L41.9457 101.558L48.3447 99.2168L54 103L59.6553 99.2168L66.0546 101.558L70.6314 96.539L77.4097 97.281L80.6366 91.3162L87.397 90.4257L89.098 83.869L95.4506 81.406L95.5279 74.636L101.102 70.7349L99.5369 64.145L104 59.0261L100.889 53Z" fill="#94AB08"/>
<circle cx="54.4312" cy="52.569" r="44.3966" fill="#CFDD79"/>
<circle cx="54.4312" cy="52.569" r="42.6724" fill="#BAD036"/>
</g>
<defs>
<filter id="filter0_d" x="0" y="0" width="108" height="108" filterUnits="userSpaceOnUse" color-interpolation-filters="sRGB">
<feFlood flood-opacity="0" result="BackgroundImageFix"/>
<feColorMatrix in="SourceAlpha" type="matrix" values="0 0 0 0 0 0 0 0 0 0 0 0 0 0 0 0 0 0 127 0"/>
<feOffset dy="1"/>
<feGaussianBlur stdDeviation="2"/>
<feColorMatrix type="matrix" values="0 0 0 0 0 0 0 0 0 0 0 0 0 0 0 0 0 0 0.25 0"/>
<feBlend mode="normal" in2="BackgroundImageFix" result="effect1_dropShadow"/>
<feBlend mode="normal" in="SourceGraphic" in2="effect1_dropShadow" result="shape"/>
</filter>
</defs>
</svg>
