<svg width="101" height="37" viewBox="0 0 101 37" fill="none" xmlns="http://www.w3.org/2000/svg">
<path d="M5.796 7.03195H2.652L2.148 8.51995H0L3.048 0.0959473H5.424L8.472 8.51995H6.3L5.796 7.03195ZM5.268 5.44795L4.224 2.36395L3.192 5.44795H5.268Z" fill="#708CB1"/>
<path d="M21.6997 0.0959473V8.51995H19.6477V3.46795L17.7637 8.51995H16.1077L14.2117 3.45595V8.51995H12.1597V0.0959473H14.5837L16.9477 5.92795L19.2877 0.0959473H21.6997Z" fill="#708CB1"/>
<path d="M31.1793 7.03195H28.0353L27.5313 8.51995H25.3833L28.4313 0.0959473H30.8073L33.8553 8.51995H31.6833L31.1793 7.03195ZM30.6513 5.44795L29.6073 2.36395L28.5753 5.44795H30.6513Z" fill="#708CB1"/>
<path d="M39.7269 6.83995H43.3509V8.51995H37.3989V6.95995L40.9989 1.77595H37.3989V0.0959473H43.3509V1.65595L39.7269 6.83995Z" fill="#708CB1"/>
<path d="M49.5032 0.0959473V8.51995H47.4512V0.0959473H49.5032Z" fill="#708CB1"/>
<path d="M61.2865 8.51995H59.2345L55.8025 3.32395V8.51995H53.7505V0.0959473H55.8025L59.2345 5.31595V0.0959473H61.2865V8.51995Z" fill="#708CB1"/>
<path d="M71.126 2.76C70.974 2.48 70.754 2.268 70.466 2.124C70.186 1.972 69.854 1.896 69.47 1.896C68.806 1.896 68.274 2.116 67.874 2.556C67.474 2.988 67.274 3.568 67.274 4.296C67.274 5.072 67.482 5.68 67.898 6.12C68.322 6.552 68.902 6.768 69.638 6.768C70.142 6.768 70.566 6.64 70.91 6.384C71.262 6.128 71.518 5.76 71.678 5.28H69.074V3.768H73.538V5.676C73.386 6.188 73.126 6.664 72.758 7.104C72.398 7.544 71.938 7.9 71.378 8.172C70.818 8.444 70.186 8.58 69.482 8.58C68.65 8.58 67.906 8.4 67.25 8.04C66.602 7.672 66.094 7.164 65.726 6.516C65.366 5.868 65.186 5.128 65.186 4.296C65.186 3.464 65.366 2.724 65.726 2.076C66.094 1.42 66.602 0.912 67.25 0.552C67.898 0.184 68.638 0 69.47 0C70.478 0 71.326 0.244 72.014 0.732C72.71 1.22 73.17 1.896 73.394 2.76H71.126Z" fill="#708CB1"/>
<path d="M3.249 23.0119H7.505V25.5199H0V12.1819H3.249V23.0119Z" fill="#708CB1"/>
<path d="M13.0635 12.1819V25.5199H9.81445V12.1819H13.0635Z" fill="#708CB1"/>
<path d="M21.0043 25.6529C20.029 25.6529 19.155 25.4946 18.3823 25.1779C17.6096 24.8613 16.989 24.3926 16.5203 23.7719C16.0643 23.1513 15.8236 22.4039 15.7983 21.5299H19.2563C19.307 22.0239 19.478 22.4039 19.7693 22.6699C20.0606 22.9233 20.4406 23.0499 20.9093 23.0499C21.3906 23.0499 21.7706 22.9423 22.0493 22.7269C22.328 22.4989 22.4673 22.1886 22.4673 21.7959C22.4673 21.4666 22.3533 21.1943 22.1253 20.9789C21.91 20.7636 21.6376 20.5863 21.3083 20.4469C20.9916 20.3076 20.5356 20.1493 19.9403 19.9719C19.079 19.7059 18.376 19.4399 17.8313 19.1739C17.2866 18.9079 16.818 18.5153 16.4253 17.9959C16.0326 17.4766 15.8363 16.7989 15.8363 15.9629C15.8363 14.7216 16.286 13.7526 17.1853 13.0559C18.0846 12.3466 19.2563 11.9919 20.7003 11.9919C22.1696 11.9919 23.354 12.3466 24.2533 13.0559C25.1526 13.7526 25.634 14.7279 25.6973 15.9819H22.1823C22.157 15.5513 21.9986 15.2156 21.7073 14.9749C21.416 14.7216 21.0423 14.5949 20.5863 14.5949C20.1936 14.5949 19.877 14.7026 19.6363 14.9179C19.3956 15.1206 19.2753 15.4183 19.2753 15.8109C19.2753 16.2416 19.478 16.5773 19.8833 16.8179C20.2886 17.0586 20.922 17.3183 21.7833 17.5969C22.6446 17.8883 23.3413 18.1669 23.8733 18.4329C24.418 18.6989 24.8866 19.0853 25.2793 19.5919C25.672 20.0986 25.8683 20.7509 25.8683 21.5489C25.8683 22.3089 25.672 22.9993 25.2793 23.6199C24.8993 24.2406 24.342 24.7346 23.6073 25.1019C22.8726 25.4693 22.005 25.6529 21.0043 25.6529Z" fill="#708CB1"/>
<path d="M38.2228 12.1819V14.7849H34.6888V25.5199H31.4398V14.7849H27.9058V12.1819H38.2228Z" fill="#708CB1"/>
<path d="M43.8623 14.7849V17.4829H48.2133V19.9909H43.8623V22.9169H48.7833V25.5199H40.6133V12.1819H48.7833V14.7849H43.8623Z" fill="#708CB1"/>
<path d="M63.5843 25.5199H60.3353L54.9013 17.2929V25.5199H51.6523V12.1819H54.9013L60.3353 20.4469V12.1819H63.5843V25.5199Z" fill="#708CB1"/>
<path d="M69.9487 12.1819V25.5199H66.6997V12.1819H69.9487Z" fill="#708CB1"/>
<path d="M84.995 25.5199H81.746L76.312 17.2929V25.5199H73.063V12.1819H76.312L81.746 20.4469V12.1819H84.995V25.5199Z" fill="#708CB1"/>
<path d="M96.9641 16.3998C96.7234 15.9565 96.3751 15.6208 95.9191 15.3928C95.4757 15.1522 94.9501 15.0318 94.3421 15.0318C93.2907 15.0318 92.4484 15.3802 91.8151 16.0768C91.1817 16.7608 90.8651 17.6792 90.8651 18.8318C90.8651 20.0605 91.1944 21.0232 91.8531 21.7198C92.5244 22.4038 93.4427 22.7458 94.6081 22.7458C95.4061 22.7458 96.0774 22.5432 96.6221 22.1378C97.1794 21.7325 97.5847 21.1498 97.8381 20.3898H93.7151V17.9958H100.783V21.0168C100.543 21.8275 100.131 22.5812 99.5481 23.2778C98.9781 23.9745 98.2497 24.5382 97.3631 24.9688C96.4764 25.3995 95.4757 25.6148 94.3611 25.6148C93.0437 25.6148 91.8657 25.3298 90.8271 24.7598C89.8011 24.1772 88.9967 23.3728 88.4141 22.3468C87.8441 21.3208 87.5591 20.1492 87.5591 18.8318C87.5591 17.5145 87.8441 16.3428 88.4141 15.3168C88.9967 14.2782 89.8011 13.4738 90.8271 12.9038C91.8531 12.3212 93.0247 12.0298 94.3421 12.0298C95.9381 12.0298 97.2807 12.4162 98.3701 13.1888C99.4721 13.9615 100.201 15.0318 100.555 16.3998H96.9641Z" fill="#708CB1"/>
<path d="M6.04005 28.6318V29.8961H3.84581V36.4416H2.19424V29.8961H0V28.6318H6.04005Z" fill="#708CB1"/>
<path d="M10.0764 29.8961V31.8542H12.8486V33.0961H10.0764V35.1661H13.2026V36.4416H8.4248V28.6206H13.2026V29.8961H10.0764Z" fill="#708CB1"/>
<path d="M15.4819 32.5257C15.4819 31.7573 15.6628 31.0711 16.0246 30.4669C16.3942 29.8552 16.8936 29.3816 17.5228 29.0459C18.1599 28.7028 18.8716 28.5312 19.6581 28.5312C20.5782 28.5312 21.3844 28.755 22.0764 29.2025C22.7685 29.6501 23.2522 30.2692 23.5275 31.0599H21.6282C21.4394 30.6869 21.172 30.4072 20.826 30.2207C20.4878 30.0342 20.0946 29.941 19.6463 29.941C19.1665 29.941 18.7379 30.0492 18.3604 30.2655C17.9908 30.4743 17.6998 30.7728 17.4874 31.1607C17.2829 31.5486 17.1807 32.0036 17.1807 32.5257C17.1807 33.0403 17.2829 33.4953 17.4874 33.8906C17.6998 34.2785 17.9908 34.5807 18.3604 34.797C18.7379 35.0059 19.1665 35.1102 19.6463 35.1102C20.0946 35.1102 20.4878 35.0171 20.826 34.8306C21.172 34.6367 21.4394 34.3532 21.6282 33.9803H23.5275C23.2522 34.7784 22.7685 35.4012 22.0764 35.8488C21.3922 36.2889 20.5861 36.5089 19.6581 36.5089C18.8716 36.5089 18.1599 36.341 17.5228 36.0053C16.8936 35.6622 16.3942 35.1886 16.0246 34.5844C15.6628 33.9802 15.4819 33.294 15.4819 32.5257Z" fill="#708CB1"/>
<path d="M32.9482 28.6318V36.4416H31.2966V33.1185H27.7693V36.4416H26.1177V28.6318H27.7693V31.843H31.2966V28.6318H32.9482Z" fill="#708CB1"/>
<path d="M42.7966 36.4416H41.1451L37.4054 31.0822V36.4416H35.7539V28.6206H37.4054L41.1451 33.9912V28.6206H42.7966V36.4416Z" fill="#708CB1"/>
<path d="M49.4303 36.52C48.6596 36.52 47.9517 36.3485 47.3068 36.0053C46.6619 35.6622 46.1507 35.1886 45.7732 34.5844C45.3957 33.9727 45.207 33.2827 45.207 32.5144C45.207 31.7536 45.3957 31.0711 45.7732 30.4669C46.1507 29.8552 46.6619 29.3778 47.3068 29.0347C47.9517 28.6916 48.6596 28.52 49.4303 28.52C50.2089 28.52 50.9167 28.6916 51.5537 29.0347C52.1986 29.3778 52.7059 29.8552 53.0756 30.4669C53.4531 31.0711 53.6418 31.7536 53.6418 32.5144C53.6418 33.2827 53.4531 33.9727 53.0756 34.5844C52.7059 35.1886 52.1986 35.6622 51.5537 36.0053C50.9088 36.3485 50.201 36.52 49.4303 36.52ZM49.4303 35.1214C49.9258 35.1214 50.3623 35.017 50.7398 34.8081C51.1173 34.5918 51.4122 34.286 51.6245 33.8906C51.8369 33.4953 51.943 33.0366 51.943 32.5144C51.943 31.9923 51.8369 31.5373 51.6245 31.1494C51.4122 30.7541 51.1173 30.452 50.7398 30.2431C50.3623 30.0342 49.9258 29.9298 49.4303 29.9298C48.9348 29.9298 48.4944 30.0342 48.109 30.2431C47.7315 30.452 47.4366 30.7541 47.2243 31.1494C47.0119 31.5373 46.9057 31.9923 46.9057 32.5144C46.9057 33.0366 47.0119 33.4953 47.2243 33.8906C47.4366 34.286 47.7315 34.5918 48.109 34.8081C48.4944 35.017 48.9348 35.1214 49.4303 35.1214Z" fill="#708CB1"/>
<path d="M57.7019 35.1996H60.4152V36.4416H56.0503V28.6318H57.7019V35.1996Z" fill="#708CB1"/>
<path d="M66.467 36.52C65.6962 36.52 64.9884 36.3485 64.3435 36.0053C63.6986 35.6622 63.1874 35.1886 62.8099 34.5844C62.4324 33.9727 62.2437 33.2827 62.2437 32.5144C62.2437 31.7536 62.4324 31.0711 62.8099 30.4669C63.1874 29.8552 63.6986 29.3778 64.3435 29.0347C64.9884 28.6916 65.6962 28.52 66.467 28.52C67.2456 28.52 67.9534 28.6916 68.5904 29.0347C69.2353 29.3778 69.7426 29.8552 70.1122 30.4669C70.4897 31.0711 70.6785 31.7536 70.6785 32.5144C70.6785 33.2827 70.4897 33.9727 70.1122 34.5844C69.7426 35.1886 69.2353 35.6622 68.5904 36.0053C67.9455 36.3485 67.2377 36.52 66.467 36.52ZM66.467 35.1214C66.9624 35.1214 67.3989 35.017 67.7764 34.8081C68.1539 34.5918 68.4489 34.286 68.6612 33.8906C68.8735 33.4953 68.9797 33.0366 68.9797 32.5144C68.9797 31.9923 68.8735 31.5373 68.6612 31.1494C68.4489 30.7541 68.1539 30.452 67.7764 30.2431C67.3989 30.0342 66.9624 29.9298 66.467 29.9298C65.9715 29.9298 65.5311 30.0342 65.1457 30.2431C64.7682 30.452 64.4733 30.7541 64.2609 31.1494C64.0486 31.5373 63.9424 31.9923 63.9424 32.5144C63.9424 33.0366 64.0486 33.4953 64.2609 33.8906C64.4733 34.286 64.7682 34.5918 65.1457 34.8081C65.5311 35.017 65.9715 35.1214 66.467 35.1214Z" fill="#708CB1"/>
<path d="M78.8204 30.9816C78.6317 30.6534 78.3722 30.4035 78.0418 30.2319C77.7115 30.0603 77.3262 29.9746 76.8857 29.9746C76.3981 29.9746 75.9656 30.0791 75.5881 30.288C75.2106 30.4968 74.9156 30.7952 74.7033 31.1831C74.4909 31.5709 74.3848 32.0185 74.3848 32.5257C74.3848 33.0479 74.4909 33.5028 74.7033 33.8906C74.9235 34.2785 75.2263 34.577 75.6117 34.7859C75.997 34.9947 76.4453 35.099 76.9565 35.099C77.5857 35.099 78.1008 34.9425 78.5019 34.6292C78.903 34.3085 79.1665 33.8645 79.2923 33.2976H76.461V32.1004H80.9203V33.4655C80.8102 34.01 80.5743 34.5136 80.2125 34.9761C79.8507 35.4385 79.3828 35.8114 78.8086 36.0948C78.2424 36.3708 77.6053 36.5089 76.8975 36.5089C76.1032 36.5089 75.3836 36.341 74.7387 36.0053C74.1016 35.6622 73.5983 35.1886 73.2287 34.5844C72.8669 33.9802 72.686 33.294 72.686 32.5257C72.686 31.7573 72.8669 31.0711 73.2287 30.4669C73.5983 29.8552 74.1016 29.3816 74.7387 29.0459C75.3836 28.7028 76.0993 28.5312 76.8857 28.5312C77.8138 28.5312 78.6199 28.7476 79.3041 29.1803C79.9883 29.6054 80.4602 30.2058 80.7197 30.9816H78.8204Z" fill="#708CB1"/>
<path d="M84.9734 28.6318V36.4416H83.3218V28.6318H84.9734Z" fill="#708CB1"/>
<path d="M89.4363 29.8961V31.8542H92.2086V33.0961H89.4363V35.1661H92.5625V36.4416H87.7847V28.6206H92.5625V29.8961H89.4363Z" fill="#708CB1"/>
<path d="M98.0863 36.52C97.5121 36.52 96.9931 36.4268 96.5291 36.2403C96.0729 36.0538 95.7111 35.7853 95.4437 35.4347C95.1763 35.0841 95.0387 34.6701 95.0308 34.1927H96.8004C96.824 34.5135 96.9419 34.7671 97.1543 34.9536C97.3745 35.1401 97.6734 35.2333 98.0509 35.2333C98.4362 35.2333 98.739 35.1475 98.9592 34.976C99.1794 34.7969 99.2895 34.5657 99.2895 34.2823C99.2895 34.051 99.2148 33.8608 99.0654 33.7116C98.916 33.5624 98.7272 33.4468 98.4991 33.3648C98.2789 33.2753 97.9722 33.1783 97.579 33.0739C97.0442 32.9247 96.6077 32.7792 96.2695 32.6375C95.9392 32.4883 95.6521 32.2683 95.4083 31.9774C95.1724 31.679 95.0544 31.2837 95.0544 30.7913C95.0544 30.3289 95.1763 29.9261 95.4201 29.583C95.6639 29.2398 96.0061 28.9788 96.4465 28.7997C96.8869 28.6133 97.3902 28.52 97.9565 28.52C98.8059 28.52 99.494 28.7177 100.021 29.113C100.556 29.5009 100.851 30.0454 100.906 30.7466H99.089C99.0733 30.4781 98.9514 30.258 98.7233 30.0865C98.5031 29.9074 98.2082 29.8179 97.8385 29.8179C97.5161 29.8179 97.2565 29.8962 97.0599 30.0529C96.8712 30.2095 96.7768 30.437 96.7768 30.7354C96.7768 30.9443 96.8476 31.1196 96.9891 31.2613C97.1386 31.3955 97.3194 31.5074 97.5318 31.5969C97.752 31.679 98.0587 31.776 98.452 31.8879C98.9868 32.037 99.4232 32.1862 99.7614 32.3354C100.1 32.4846 100.39 32.7084 100.634 33.0067C100.878 33.3051 101 33.6967 101 34.1816C101 34.5993 100.886 34.9872 100.658 35.3452C100.43 35.7032 100.096 35.9904 99.6552 36.2067C99.2148 36.4156 98.6918 36.52 98.0863 36.52Z" fill="#708CB1"/>
</svg>
